<?xml version="1.0" standalone="no"?>
<!DOCTYPE svg PUBLIC "-//W3C//DTD SVG 20010904//EN"
 "http://www.w3.org/TR/2001/REC-SVG-20010904/DTD/svg10.dtd">
<svg version="1.0" xmlns="http://www.w3.org/2000/svg"
 width="152.000000pt" height="152.000000pt" viewBox="0 0 152.000000 152.000000"
 preserveAspectRatio="xMidYMid meet">
<metadata>
Created by potrace 1.11, written by Peter Selinger 2001-2013
</metadata>
<g transform="translate(0.000000,152.000000) scale(0.100000,-0.100000)"
fill="#000000" stroke="none">
<path d="M400 1460 l0 -60 -115 0 -115 0 0 -55 0 -55 -55 0 -55 0 0 -295 0
-295 55 0 55 0 0 -170 0 -170 60 0 60 0 0 -115 0 -115 55 0 55 0 0 -65 0 -65
350 0 350 0 0 65 0 65 60 0 60 0 0 115 0 115 55 0 55 0 0 170 0 170 60 0 60 0
0 295 0 295 -60 0 -60 0 0 55 0 55 -115 0 -115 0 0 60 0 60 -350 0 -350 0 0
-60z m700 -115 l0 -55 115 0 115 0 0 -60 0 -60 -55 0 -55 0 0 -55 0 -55 55 0
55 0 0 -180 0 -180 -55 0 -55 0 0 -170 0 -170 -60 0 -60 0 0 -115 0 -115 -350
0 -350 0 0 115 0 115 -55 0 -55 0 0 170 0 170 -60 0 -60 0 0 180 0 180 60 0
60 0 0 55 0 55 -60 0 -60 0 0 60 0 60 115 0 115 0 0 55 0 55 350 0 350 0 0
-55z"/>
<path d="M290 1000 l0 -60 115 0 115 0 0 -55 0 -55 235 0 235 0 0 55 0 55 115
0 115 0 0 60 0 60 -115 0 -115 0 0 -60 0 -60 -235 0 -235 0 0 60 0 60 -115 0
-115 0 0 -60z"/>
</g>
</svg>
